<svg width="24" height="24" viewBox="0 0 24 24" fill="none" xmlns="http://www.w3.org/2000/svg">
<g clip-path="url(#clip0_812_2724)">
<path d="M21.75 20.25H17.25V23.25H21.75V20.25Z" stroke="white" stroke-width="1.5" stroke-linecap="round" stroke-linejoin="round"/>
<path d="M23.25 20.25H15.75V14.326C15.75 13.9282 15.908 13.5466 16.1893 13.2653C16.4706 12.984 16.8522 12.826 17.25 12.826H21.75C22.1478 12.826 22.5294 12.984 22.8107 13.2653C23.092 13.5466 23.25 13.9282 23.25 14.326V20.25Z" stroke="white" stroke-width="1.5" stroke-linecap="round" stroke-linejoin="round"/>
<path d="M6.75 0.75H2.25V3.75H6.75V0.75Z" stroke="white" stroke-width="1.5" stroke-linecap="round" stroke-linejoin="round"/>
<path d="M8.25 3.75H0.75V9.826C0.75 10.2238 0.908035 10.6054 1.18934 10.8867C1.47064 11.168 1.85218 11.326 2.25 11.326H6.75C7.14782 11.326 7.52936 11.168 7.81066 10.8867C8.09196 10.6054 8.25 10.2238 8.25 9.826V3.75Z" stroke="white" stroke-width="1.5" stroke-linecap="round" stroke-linejoin="round"/>
<path d="M19.5 12.826V4.5C19.5 3.50544 19.1049 2.55161 18.4017 1.84835C17.6984 1.14509 16.7446 0.75 15.75 0.75C14.7554 0.75 13.8016 1.14509 13.0983 1.84835C12.3951 2.55161 12 3.50544 12 4.5V19.5C12 20.4946 11.6049 21.4484 10.9017 22.1517C10.1984 22.8549 9.24456 23.25 8.25 23.25C7.25544 23.25 6.30161 22.8549 5.59835 22.1517C4.89509 21.4484 4.5 20.4946 4.5 19.5V11.326" stroke="white" stroke-width="1.5" stroke-linecap="round" stroke-linejoin="round"/>
</g>
<defs>
<clipPath id="clip0_812_2724">
<rect width="24" height="24" fill="white"/>
</clipPath>
</defs>
</svg>
