<svg width="24" height="24" viewBox="0 0 24 24" fill="none" xmlns="http://www.w3.org/2000/svg">
<g clip-path="url(#clip0_1402_2223)">
<path fill-rule="evenodd" clip-rule="evenodd" d="M21.75 5C22.9942 5 24 6.00579 24 7.25V16.25C24 17.4942 22.9942 18.5 21.75 18.5H9.75C8.50579 18.5 7.5 17.4942 7.5 16.25V7.25C7.5 6.00579 8.50579 5 9.75 5H21.75ZM22.5 7.25C22.5 6.83421 22.1658 6.5 21.75 6.5H9.75C9.33421 6.5 9 6.83421 9 7.25V16.25C9 16.6658 9.33421 17 9.75 17H21.75C22.1658 17 22.5 16.6658 22.5 16.25V7.25ZM1.49977 6.21002C1.75222 6.21002 1.96877 6.27482 2.15012 6.35725C2.15819 6.36092 2.1662 6.36473 2.17414 6.36868L4.76224 7.65774C5.53182 8.0361 6.00977 8.81912 6.00977 9.67002V13.82C6.00977 14.6709 5.53179 15.454 4.76218 15.8323L4.75988 15.8335L2.17414 17.1214L2.17415 17.1214L2.16787 17.1244C1.42856 17.4841 0.537642 17.183 0.16259 16.4526L0.162552 16.4526L0.158945 16.4454C0.0605736 16.2487 -0.000234604 16.0145 -0.000234604 15.78V7.71002C-0.000234604 6.88581 0.675552 6.21002 1.49977 6.21002ZM4.09539 9.00136L1.5203 7.71878C1.51056 7.71465 1.50386 7.71232 1.49977 7.71105V15.7713L1.49988 15.7717L1.50053 15.7723C1.50171 15.7733 1.50353 15.7745 1.5059 15.7752C1.50827 15.776 1.50993 15.7761 1.51044 15.776L1.51092 15.7759L4.09539 14.4887L4.09539 14.4887L4.09965 14.4866C4.34869 14.3645 4.50977 14.1083 4.50977 13.82V9.67002C4.50977 9.38179 4.34869 9.12554 4.09965 9.00346L4.09964 9.00348L4.09539 9.00136Z" fill="white"/>
</g>
<defs>
<clipPath id="clip0_1402_2223">
<rect width="24" height="24" fill="white" transform="matrix(-1 0 0 1 24 0)"/>
</clipPath>
</defs>
</svg>
