<svg width="25" height="25" viewBox="0 0 25 25" fill="none" xmlns="http://www.w3.org/2000/svg">
<path d="M13 1.00002C11.1288 0.99732 9.29097 1.49543 7.67723 2.44266C6.06349 3.38989 4.73264 4.75172 3.8228 6.38683C2.91295 8.02194 2.45726 9.87074 2.50302 11.7414C2.54877 13.612 3.0943 15.4363 4.083 17.025L1 23.5L7.474 20.416C8.85467 21.2748 10.4159 21.8012 12.0347 21.9537C13.6535 22.1062 15.2856 21.8807 16.8024 21.295C18.3192 20.7092 19.6792 19.7792 20.7753 18.5782C21.8713 17.3772 22.6735 15.9381 23.1186 14.3743C23.5637 12.8104 23.6395 11.1646 23.3401 9.56641C23.0407 7.96826 22.3742 6.46148 21.3932 5.16482C20.4122 3.86816 19.1434 2.81704 17.6869 2.09431C16.2304 1.37157 14.626 0.99697 13 1.00002V1.00002Z" stroke="white" stroke-width="1.5" stroke-linecap="round" stroke-linejoin="round"/>
<path d="M8.5 11.125C8.42583 11.125 8.35333 11.147 8.29166 11.1882C8.22999 11.2294 8.18193 11.288 8.15355 11.3565C8.12516 11.425 8.11774 11.5004 8.13221 11.5732C8.14668 11.6459 8.18239 11.7127 8.23484 11.7652C8.28728 11.8176 8.3541 11.8533 8.42684 11.8678C8.49958 11.8823 8.57498 11.8748 8.64351 11.8465C8.71203 11.8181 8.7706 11.77 8.8118 11.7083C8.85301 11.6467 8.875 11.5742 8.875 11.5C8.875 11.4005 8.83549 11.3052 8.76517 11.2348C8.69484 11.1645 8.59946 11.125 8.5 11.125Z" stroke="white" stroke-width="1.5" stroke-linecap="round" stroke-linejoin="round"/>
<path d="M13 11.125C12.9258 11.125 12.8533 11.147 12.7917 11.1882C12.73 11.2294 12.6819 11.288 12.6535 11.3565C12.6252 11.425 12.6177 11.5004 12.6322 11.5732C12.6467 11.6459 12.6824 11.7127 12.7348 11.7652C12.7873 11.8176 12.8541 11.8533 12.9268 11.8678C12.9996 11.8823 13.075 11.8748 13.1435 11.8465C13.212 11.8181 13.2706 11.77 13.3118 11.7083C13.353 11.6467 13.375 11.5742 13.375 11.5C13.375 11.4005 13.3355 11.3052 13.2652 11.2348C13.1948 11.1645 13.0995 11.125 13 11.125Z" stroke="white" stroke-width="1.5" stroke-linecap="round" stroke-linejoin="round"/>
<path d="M17.5 11.125C17.4258 11.125 17.3533 11.147 17.2917 11.1882C17.23 11.2294 17.1819 11.288 17.1535 11.3565C17.1252 11.425 17.1177 11.5004 17.1322 11.5732C17.1467 11.6459 17.1824 11.7127 17.2348 11.7652C17.2873 11.8176 17.3541 11.8533 17.4268 11.8678C17.4996 11.8823 17.575 11.8748 17.6435 11.8465C17.712 11.8181 17.7706 11.77 17.8118 11.7083C17.853 11.6467 17.875 11.5742 17.875 11.5C17.875 11.4005 17.8355 11.3052 17.7652 11.2348C17.6948 11.1645 17.5995 11.125 17.5 11.125Z" stroke="white" stroke-width="1.5" stroke-linecap="round" stroke-linejoin="round"/>
</svg>
