<svg width="24" height="24" viewBox="0 0 24 24" fill="none" xmlns="http://www.w3.org/2000/svg">
<g clip-path="url(#clip0_812_2720)">
<path d="M10.8149 18.305C12.0928 19.4144 13.4512 20.4275 14.8789 21.336L14.8899 21.343C15.8758 21.9706 17.0462 22.2433 18.208 22.116C19.3697 21.9887 20.4533 21.4691 21.2799 20.643L21.9999 19.923C22.1591 19.7639 22.2853 19.5751 22.3714 19.3672C22.4576 19.1593 22.5019 18.9365 22.5019 18.7115C22.5019 18.4865 22.4576 18.2637 22.3714 18.0558C22.2853 17.8479 22.1591 17.6591 21.9999 17.5L18.9729 14.473C18.6518 14.1522 18.2164 13.972 17.7624 13.972C17.3085 13.972 16.8731 14.1522 16.5519 14.473V14.473C16.393 14.6321 16.2042 14.7583 15.9964 14.8444C15.7886 14.9305 15.5659 14.9749 15.3409 14.9749C15.116 14.9749 14.8933 14.9305 14.6855 14.8444C14.4777 14.7583 14.2889 14.6321 14.1299 14.473" stroke="white" stroke-width="1.5" stroke-linecap="round" stroke-linejoin="round"/>
<path d="M9.28693 9.63198C9.12786 9.47307 9.00167 9.28437 8.91557 9.07667C8.82947 8.86896 8.78515 8.64632 8.78515 8.42148C8.78515 8.19663 8.82947 7.97399 8.91557 7.76629C9.00167 7.55858 9.12786 7.36988 9.28693 7.21098V7.21098C9.60771 6.88979 9.78789 6.45441 9.78789 6.00048C9.78789 5.54654 9.60771 5.11116 9.28693 4.78998L6.25994 1.76298C5.93875 1.4422 5.50337 1.26202 5.04943 1.26202C4.5955 1.26202 4.16012 1.4422 3.83893 1.76298L3.11993 2.48198C2.2937 3.30834 1.77404 4.3918 1.64676 5.55342C1.51949 6.71503 1.79223 7.88531 2.41994 8.87098L2.42694 8.88298C3.27201 10.2124 4.20756 11.482 5.22694 12.683" stroke="white" stroke-width="1.5" stroke-linecap="round" stroke-linejoin="round"/>
<path d="M23.25 0.75L0.75 23.25" stroke="white" stroke-width="1.5" stroke-linecap="round" stroke-linejoin="round"/>
</g>
<defs>
<clipPath id="clip0_812_2720">
<rect width="24" height="24" fill="white"/>
</clipPath>
</defs>
</svg>
