<svg width="24" height="24" viewBox="0 0 24 24" fill="none" xmlns="http://www.w3.org/2000/svg">
<path d="M0.75 21.75H23.25" stroke="white" stroke-width="1.5" stroke-linecap="round" stroke-linejoin="round"/>
<path d="M6 11.25H3C2.80109 11.25 2.61032 11.329 2.46967 11.4697C2.32902 11.6103 2.25 11.8011 2.25 12V21.75H6.75V12C6.75 11.8011 6.67098 11.6103 6.53033 11.4697C6.38968 11.329 6.19891 11.25 6 11.25Z" stroke="white" stroke-width="1.5" stroke-linecap="round" stroke-linejoin="round"/>
<path d="m 13.553766,6.66882 h -3.107575 c -0.206033,0 -0.403675,0.060811 -0.5493475,0.1690486 C 9.75115,6.9461067 9.6692966,7.0929151 9.6692966,7.2459877 V 21.675183 H 14.33066 V 7.2459877 c 0,-0.1530726 -0.08183,-0.299881 -0.227579,-0.4081191 C 13.95744,6.7296304 13.759798,6.66882 13.553766,6.66882 Z" stroke="white" stroke-width="1.5" stroke-linecap="round" stroke-linejoin="round"/>
<path d="m 20.943247,2.2571288 h -2.886494 c -0.191375,0 -0.374956,0.101829 -0.510237,0.2830776 C 17.41114,2.721455 17.335129,2.9672906 17.335129,3.2236159 V 21.586871 h 4.329742 V 3.2236159 c 0,-0.2563253 -0.07601,-0.5021609 -0.211387,-0.6834095 C 21.318203,2.3589578 21.134622,2.2571288 20.943247,2.2571288 Z" stroke="white" stroke-width="1.5" stroke-linecap="round" stroke-linejoin="round"/>
</svg>
