<svg width="24" height="24" viewBox="0 0 24 24" fill="none" xmlns="http://www.w3.org/2000/svg">
<g clip-path="url(#clip0_813_2152)">
<path d="M23.25 0.75L0.75 23.25" stroke="white" stroke-width="1.5" stroke-linecap="round" stroke-linejoin="round"/>
<path d="M8.25 11.25V8.25C8.25 7.85218 8.40804 7.47064 8.68934 7.18934C8.97064 6.90804 9.35218 6.75 9.75 6.75H13.5" stroke="white" stroke-width="1.5" stroke-linecap="round" stroke-linejoin="round"/>
<path d="M10.5 18.75H21.75C22.1478 18.75 22.5294 18.592 22.8107 18.3107C23.092 18.0294 23.25 17.6478 23.25 17.25V8.25C23.25 7.85218 23.092 7.47064 22.8107 7.18934C22.5294 6.90804 22.1478 6.75 21.75 6.75" stroke="white" stroke-width="1.5" stroke-linecap="round" stroke-linejoin="round"/>
<path d="M4.421 16.165L1.835 17.457C1.72066 17.5141 1.59362 17.541 1.46595 17.5352C1.33828 17.5294 1.21421 17.4911 1.10552 17.4239C0.996823 17.3567 0.907107 17.2628 0.844887 17.1511C0.782666 17.0395 0.750004 16.9138 0.75 16.786V8.71402C0.750004 8.58622 0.782666 8.46054 0.844887 8.34891C0.907107 8.23728 0.996823 8.1434 1.10552 8.07618C1.21421 8.00896 1.33828 7.97063 1.46595 7.96482C1.59362 7.95902 1.72066 7.98594 1.835 8.04303L4.421 9.33503C4.67018 9.45966 4.87973 9.65122 5.02615 9.88826C5.17257 10.1253 5.25008 10.3984 5.25 10.677V14.823C5.25008 15.1016 5.17257 15.3748 5.02615 15.6118C4.87973 15.8488 4.67018 16.0404 4.421 16.165V16.165Z" stroke="white" stroke-width="1.5" stroke-linecap="round" stroke-linejoin="round"/>
</g>
<defs>
<clipPath id="clip0_813_2152">
<rect width="24" height="24" fill="white" transform="matrix(-1 0 0 1 24 0)"/>
</clipPath>
</defs>
</svg>
