<?xml version="1.0" encoding="UTF-8" standalone="no"?>
<svg
   xmlns:dc="http://purl.org/dc/elements/1.1/"
   xmlns:cc="http://creativecommons.org/ns#"
   xmlns:rdf="http://www.w3.org/1999/02/22-rdf-syntax-ns#"
   xmlns:svg="http://www.w3.org/2000/svg"
   xmlns="http://www.w3.org/2000/svg"
   viewBox="0 0 1000 225.48"
   height="225.48"
   width="1000"
   xml:space="preserve"
   id="svg2"
   version="1.1"><metadata
     id="metadata8"><rdf:RDF><cc:Work
         rdf:about=""><dc:format>image/svg+xml</dc:format><dc:type
           rdf:resource="http://purl.org/dc/dcmitype/StillImage" /></cc:Work></rdf:RDF></metadata><defs
     id="defs6"><clipPath
       id="clipPath40"
       clipPathUnits="userSpaceOnUse"><path
         id="path38"
         d="m 6426.57,668.949 -47.72,-26.808 c -17.88,-10.051 -40.74,-3.641 -50.78,14.25 -10.05,17.879 -3.64,40.726 14.24,50.777 l 47.72,26.812 c 17.88,10.047 40.74,3.637 50.78,-14.246 10.05,-17.879 3.64,-40.734 -14.24,-50.785 z m -139.7,-78.488 -47.72,-26.82 c -17.88,-10.039 -40.73,-3.629 -50.78,14.25 -10.05,17.879 -3.64,40.73 14.24,50.781 l 47.72,26.808 c 17.89,10.051 40.74,3.641 50.78,-14.242 10.05,-17.879 3.64,-40.726 -14.24,-50.777 z m -139.7,-78.5 -47.72,-26.813 c -17.88,-10.046 -40.74,-3.636 -50.78,14.243 -10.05,17.879 -3.64,40.738 14.24,50.789 l 47.72,26.808 c 17.88,10.051 40.74,3.641 50.78,-14.25 10.05,-17.879 3.64,-40.726 -14.24,-50.777 z M 5981.2,339.84 c -51.06,-28.692 -115.71,-10.551 -144.4,40.512 -28.7,51.058 -10.56,115.707 40.5,144.41 51.07,28.687 115.72,10.547 144.41,-40.512 28.69,-51.059 10.56,-115.719 -40.51,-144.41 z m 486.65,611.785 c 34.88,110.545 135.54,182.045 245.24,185.075 -5.76,18.28 -15.02,35.16 -27.91,50.57 -39.11,-4.4 -76.83,-15.97 -111.27,-33.89 -4.41,-2.29 -8.77,-4.7 -13.07,-7.19 -1.4,-0.82 -2.77,-1.71 -4.16,-2.54 -2.87,-1.73 -5.74,-3.45 -8.56,-5.27 -1.65,-1.06 -3.25,-2.2 -4.88,-3.3 -2.5,-1.67 -5,-3.34 -7.46,-5.09 -1.73,-1.24 -3.43,-2.55 -5.14,-3.82 -2.28,-1.7 -4.57,-3.38 -6.8,-5.13 -1.77,-1.4 -3.48,-2.85 -5.22,-4.28 -2.11,-1.74 -4.23,-3.46 -6.3,-5.25 -1.75,-1.52 -3.46,-3.09 -5.18,-4.65 -1.98,-1.8 -3.98,-3.59 -5.92,-5.44 -1.71,-1.63 -3.38,-3.31 -5.06,-4.99 -1.87,-1.86 -3.74,-3.72 -5.56,-5.63 -1.67,-1.74 -3.3,-3.53 -4.93,-5.33 -1.76,-1.92 -3.51,-3.85 -5.22,-5.82 -1.6,-1.85 -3.17,-3.73 -4.73,-5.62 -1.66,-2 -3.3,-4.01 -4.91,-6.06 -1.53,-1.95 -3.03,-3.91 -4.51,-5.9 -1.56,-2.07 -3.09,-4.16 -4.6,-6.28 -1.45,-2.04 -2.87,-4.09 -4.27,-6.17 -1.46,-2.15 -2.89,-4.32 -4.29,-6.51 -1.36,-2.13 -2.7,-4.27 -4.02,-6.43 -1.35,-2.22 -2.67,-4.47 -3.96,-6.73 -1.27,-2.21 -2.52,-4.43 -3.75,-6.68 -1.24,-2.3 -2.44,-4.62 -3.64,-6.96 -1.16,-2.29 -2.32,-4.58 -3.44,-6.91 -1.14,-2.37 -2.23,-4.78 -3.32,-7.19 -1.06,-2.366 -2.12,-4.726 -3.13,-7.128 -1.04,-2.457 -2.01,-4.949 -2.99,-7.445 -0.95,-2.422 -1.9,-4.84 -2.8,-7.301 -1.59,-4.359 -3.13,-8.75 -4.54,-13.219 -18.4,-58.289 -19.12,-117.949 -5.18,-173.164 l -52.74,-30.012 c -20.86,69.747 -21.76,146.254 1.8,220.887 3.13,9.938 6.67,19.622 10.54,29.102 -0.01,0.01 -0.02,0.02 -0.03,0.02 0.31,0.76 0.67,1.5 0.98,2.25 1.98,4.75 4.04,9.43 6.19,14.06 0.64,1.4 1.29,2.81 1.95,4.2 2.6,5.42 5.28,10.77 8.11,16.02 0.34,0.62 0.7,1.23 1.03,1.85 2.58,4.71 5.25,9.33 8.01,13.9 0.8,1.32 1.6,2.65 2.42,3.97 3.06,4.92 6.19,9.78 9.44,14.53 l -195.94,159.3 H 5515.1 c -42.48,0 -78.86,-15.12 -109.12,-45.38 -30.26,-30.26 -45.38,-66.62 -45.38,-109.11 V 409.762 c 0,-42.492 15.12,-78.852 45.38,-109.102 30.26,-30.262 66.64,-45.39 109.12,-45.39 h 1050.58 c 42.49,0 78.85,15.109 109.09,45.39 30.27,30.27 45.4,66.621 45.4,109.102 v 85.09 c -37.39,0.046 -75.41,5.679 -112.95,17.527 -70.95,22.391 -130.61,63.851 -175.1,116.949 L 6484.25,659 c 36.71,-40.879 84.49,-72.77 140.68,-90.5 31.66,-9.988 63.71,-14.762 95.24,-14.801 v 53.313 c -26.29,0.027 -53.05,4 -79.46,12.328 -139.49,44.019 -216.88,192.793 -172.86,332.285 z" /></clipPath><linearGradient
       id="linearGradient48"
       spreadMethod="pad"
       gradientTransform="matrix(1690.46,1690.46,1690.46,-1690.46,5273.95,-16.77)"
       gradientUnits="userSpaceOnUse"
       y2="0"
       x2="1"
       y1="0"
       x1="0"><stop
         id="stop42"
         offset="0"
         style="stop-opacity:1;stop-color:#07b9cb" /><stop
         id="stop44"
         offset="0.4854273"
         style="stop-opacity:1;stop-color:#07b9cb" /><stop
         id="stop46"
         offset="1"
         style="stop-opacity:1;stop-color:#c2d63e" /></linearGradient><clipPath
       id="clipPath58"
       clipPathUnits="userSpaceOnUse"><path
         id="path56"
         d="m 6546.75,1205.56 c 23.29,12.12 47.84,21.79 73.24,28.85 -16.85,6.31 -34.91,9.62 -54.31,9.62 H 6309.2 l 138.66,-112.73 c 28.8,30.17 62.29,55.22 98.89,74.26 z" /></clipPath><linearGradient
       id="linearGradient66"
       spreadMethod="pad"
       gradientTransform="matrix(1665.26,1665.26,1665.26,-1665.26,5261.56,36.18)"
       gradientUnits="userSpaceOnUse"
       y2="0"
       x2="1"
       y1="0"
       x1="0"><stop
         id="stop60"
         offset="0"
         style="stop-opacity:1;stop-color:#07b9cb" /><stop
         id="stop62"
         offset="0.4854273"
         style="stop-opacity:1;stop-color:#07b9cb" /><stop
         id="stop64"
         offset="1"
         style="stop-opacity:1;stop-color:#c2d63e" /></linearGradient><clipPath
       id="clipPath76"
       clipPathUnits="userSpaceOnUse"><path
         id="path74"
         d="m 6544.57,927.41 c -30.6,-96.961 23.39,-200.742 120.36,-231.34 18.02,-5.691 36.6,-8.582 55.24,-8.601 v 368.911 c -80.71,-0.07 -151.27,-51.87 -175.6,-128.97 z" /></clipPath><linearGradient
       id="linearGradient84"
       spreadMethod="pad"
       gradientTransform="matrix(1707.85,1707.85,1707.85,-1707.85,5519.08,-291)"
       gradientUnits="userSpaceOnUse"
       y2="0"
       x2="1"
       y1="0"
       x1="0"><stop
         id="stop78"
         offset="0"
         style="stop-opacity:1;stop-color:#07b9cb" /><stop
         id="stop80"
         offset="0.4854273"
         style="stop-opacity:1;stop-color:#07b9cb" /><stop
         id="stop82"
         offset="1"
         style="stop-opacity:1;stop-color:#c2d63e" /></linearGradient><clipPath
       id="clipPath94"
       clipPathUnits="userSpaceOnUse"><path
         id="path92"
         d="m 6893.93,1205.85 -18.03,-57.12 c 47.58,-26.59 86.47,-64.48 114.25,-109.06 l 58.02,17.52 c -35.21,62.13 -88.05,114.45 -154.24,148.66 z" /></clipPath><linearGradient
       id="linearGradient102"
       spreadMethod="pad"
       gradientTransform="matrix(1659.78,1659.78,1659.78,-1659.78,5571.77,-267.76)"
       gradientUnits="userSpaceOnUse"
       y2="0"
       x2="1"
       y1="0"
       x1="0"><stop
         id="stop96"
         offset="0"
         style="stop-opacity:1;stop-color:#07b9cb" /><stop
         id="stop98"
         offset="0.4854273"
         style="stop-opacity:1;stop-color:#07b9cb" /><stop
         id="stop100"
         offset="1"
         style="stop-opacity:1;stop-color:#c2d63e" /></linearGradient><clipPath
       id="clipPath112"
       clipPathUnits="userSpaceOnUse"><path
         id="path110"
         d="m 7443.62,1060.16 c -8.57,-27.15 -33.66,-44.52 -60.7,-44.52 -6.34,0 -12.79,0.96 -19.17,2.97 -33.53,10.58 -52.14,46.34 -41.55,79.87 8.57,27.15 33.65,44.52 60.69,44.52 6.35,0 12.81,-0.95 19.18,-2.97 33.52,-10.58 52.13,-46.34 41.55,-79.87 z m -26.02,130.42 c -11.8,3.72 -23.74,5.49 -35.49,5.49 -50.05,0 -96.47,-32.12 -112.34,-82.39 -4.23,-13.44 -5.94,-27.05 -5.39,-40.36 l -303,-91.504 c -30.06,65.834 -86.8,119.184 -161.25,142.674 -26.52,8.37 -53.38,12.35 -79.78,12.35 -2.43,0 -4.84,-0.08 -7.26,-0.14 4.66,-14.79 7.08,-30.49 7.08,-47.16 v -33.16 c 0.06,0 0.11,0.01 0.17,0.01 18.76,0 37.45,-2.91 55.57,-8.62 49.68,-15.68 90.61,-51.899 112.27,-99.364 l 8.75,-19.168 3.63,-17.832 0.03,-0.215 0.3,-1.464 0.04,-0.227 0.05,-0.227 c 1.49,-7.175 2.57,-14.414 3.19,-21.617 l 0.1,-1.519 0.13,-1.899 c 0.14,-2.172 0.27,-4.351 0.34,-6.699 0.05,-1.629 0.09,-3.254 0.1,-4.754 0.01,-1.625 -0.04,-3.25 -0.08,-5.101 -0.16,-7.586 -0.82,-15.317 -1.93,-22.84 l -0.23,-1.606 c -0.39,-2.511 -0.88,-5.152 -1.49,-8.199 l -0.11,-0.469 -0.04,-0.211 c -1.21,-5.82 -2.44,-10.894 -3.73,-15.336 l -3.1,-8.746 c -26,-73.464 -95.79,-122.828 -173.67,-122.828 -0.1,0 -0.19,0.02 -0.29,0.02 v -80.457 c 0.1,0 0.19,-0.012 0.29,-0.012 109.54,0 211.33,68.52 249.52,176.438 l 0.05,-0.137 c 1,2.84 2.1,5.621 3.02,8.515 2.74,8.711 4.88,17.457 6.69,26.211 0.05,0.25 0.11,0.504 0.16,0.75 0.84,4.118 1.6,8.231 2.24,12.344 0.09,0.594 0.16,1.18 0.25,1.77 1.65,11.07 2.58,22.125 2.81,33.113 0.05,2.398 0.11,4.793 0.1,7.176 -0.02,2.343 -0.07,4.672 -0.15,7.004 -0.1,3.175 -0.27,6.328 -0.48,9.484 -0.12,1.684 -0.2,3.367 -0.35,5.043 -0.91,10.453 -2.46,20.793 -4.58,30.977 -0.02,0.113 -0.03,0.222 -0.06,0.332 l 301.71,91.11 c 14.3,-23.607 36.9,-42.321 65.29,-51.282 11.8,-3.719 23.75,-5.493 35.5,-5.493 50.05,0 96.46,32.137 112.33,82.395 19.58,62.06 -14.84,128.25 -76.91,147.83 z" /></clipPath><linearGradient
       id="linearGradient120"
       spreadMethod="pad"
       gradientTransform="matrix(1691.46,1691.46,1691.46,-1691.46,5633.59,-389.91)"
       gradientUnits="userSpaceOnUse"
       y2="0"
       x2="1"
       y1="0"
       x1="0"><stop
         id="stop114"
         offset="0"
         style="stop-opacity:1;stop-color:#07b9cb" /><stop
         id="stop116"
         offset="0.4854273"
         style="stop-opacity:1;stop-color:#07b9cb" /><stop
         id="stop118"
         offset="1"
         style="stop-opacity:1;stop-color:#c2d63e" /></linearGradient><clipPath
       id="clipPath130"
       clipPathUnits="userSpaceOnUse"><path
         id="path128"
         d="m 5915.8,1415.76 c -57.96,0 -105.12,47.15 -105.12,105.12 0,57.96 47.16,105.12 105.12,105.12 57.96,0 105.12,-47.16 105.12,-105.12 0,-57.97 -47.16,-105.12 -105.12,-105.12 z m 146.49,29 c 11.86,22.78 18.61,48.66 18.61,76.12 0,91.18 -73.92,165.1 -165.1,165.1 -91.18,0 -165.1,-73.92 -165.1,-165.1 0,-91.18 73.92,-165.1 165.1,-165.1 42.07,0 80.45,15.77 109.61,41.68 l 188.72,-153.43 h 95.07 z" /></clipPath><linearGradient
       id="linearGradient138"
       spreadMethod="pad"
       gradientTransform="matrix(1695.51,1695.51,1695.51,-1695.51,4940.8,327.49)"
       gradientUnits="userSpaceOnUse"
       y2="0"
       x2="1"
       y1="0"
       x1="0"><stop
         id="stop132"
         offset="0"
         style="stop-opacity:1;stop-color:#07b9cb" /><stop
         id="stop134"
         offset="0.4854273"
         style="stop-opacity:1;stop-color:#07b9cb" /><stop
         id="stop136"
         offset="1"
         style="stop-opacity:1;stop-color:#c2d63e" /></linearGradient><clipPath
       id="clipPath148"
       clipPathUnits="userSpaceOnUse"><path
         id="path146"
         d="m 7059.56,421.84 c 45.44,0 82.42,-36.981 82.42,-82.418 0,-45.453 -36.98,-82.41 -82.42,-82.41 -45.45,0 -82.42,36.957 -82.42,82.41 0,45.437 36.97,82.418 82.42,82.418 z m -165.21,115.59 2.75,1.449 62.79,-97.859 c -26.34,-25.84 -42.72,-61.79 -42.72,-101.598 0,-78.641 63.75,-142.391 142.39,-142.391 78.64,0 142.39,63.75 142.39,142.391 0,78.637 -63.75,142.387 -142.39,142.387 -17.22,0 -33.65,-3.207 -48.93,-8.809 l -62.95,98.121 c 20.26,15.289 39,32.707 55.94,51.988 0.01,-0.019 0.02,-0.039 0.03,-0.058 0.66,0.75 1.27,1.539 1.92,2.301 2.81,3.25 5.56,6.546 8.27,9.898 0.98,1.23 1.98,2.441 2.96,3.68 3.56,4.539 7.06,9.16 10.42,13.879 0.29,0.41 0.57,0.832 0.85,1.242 3.06,4.32 6.01,8.73 8.89,13.199 0.93,1.441 1.84,2.898 2.75,4.359 2.31,3.68 4.55,7.422 6.73,11.2 0.84,1.441 1.68,2.871 2.5,4.332 2.87,5.121 5.65,10.3 8.3,15.589 0.13,0.266 0.25,0.551 0.39,0.821 2.49,5.008 4.85,10.109 7.13,15.269 0.72,1.633 1.42,3.285 2.11,4.93 1.72,4.035 3.37,8.117 4.95,12.238 0.65,1.676 1.31,3.34 1.93,5.032 2.08,5.648 4.08,11.347 5.91,17.152 16.17,51.223 20.83,103.332 15.41,153.535 l -57.52,-17.379 c 2.8,-38.898 -1.54,-78.976 -14,-118.449 -1.53,-4.863 -3.19,-9.652 -4.94,-14.391 -0.55,-1.504 -1.16,-2.976 -1.73,-4.468 -1.25,-3.227 -2.52,-6.434 -3.85,-9.598 -0.72,-1.699 -1.47,-3.375 -2.21,-5.055 -1.31,-2.949 -2.65,-5.875 -4.04,-8.769 -0.8,-1.653 -1.6,-3.297 -2.42,-4.93 -1.49,-2.973 -3.03,-5.898 -4.61,-8.809 -0.78,-1.441 -1.54,-2.898 -2.34,-4.328 -2.01,-3.562 -4.09,-7.074 -6.21,-10.543 -0.43,-0.691 -0.83,-1.406 -1.25,-2.093 -2.59,-4.137 -5.27,-8.196 -8.03,-12.184 -0.78,-1.141 -1.62,-2.242 -2.42,-3.371 -29.49,-41.5 -68.19,-74.781 -112.29,-97.719 -44.85,-23.332 -95.23,-36 -147.04,-35.922 v -58.847 c 61.37,-0.071 121.05,14.949 174.18,42.578 z" /></clipPath><linearGradient
       id="linearGradient156"
       spreadMethod="pad"
       gradientTransform="matrix(1715.29,1715.29,1715.29,-1715.29,5868.82,-663.54)"
       gradientUnits="userSpaceOnUse"
       y2="0"
       x2="1"
       y1="0"
       x1="0"><stop
         id="stop150"
         offset="0"
         style="stop-opacity:1;stop-color:#07b9cb" /><stop
         id="stop152"
         offset="0.4854273"
         style="stop-opacity:1;stop-color:#07b9cb" /><stop
         id="stop154"
         offset="1"
         style="stop-opacity:1;stop-color:#c2d63e" /></linearGradient><clipPath
       id="clipPath166"
       clipPathUnits="userSpaceOnUse"><path
         id="path164"
         d="M 0,0 H 7500 V 1691 H 0 Z" /></clipPath><clipPath
       id="clipPath172"
       clipPathUnits="userSpaceOnUse"><path
         id="path170"
         d="m 6903.98,1484.02 c 55.8,-17.8 115.47,13.01 133.26,68.81 17.8,55.81 -13,115.47 -68.81,133.27 -55.8,17.79 -115.46,-13.01 -133.26,-68.81 -17.8,-55.81 13.01,-115.47 68.81,-133.27 z" /></clipPath><linearGradient
       id="linearGradient180"
       spreadMethod="pad"
       gradientTransform="matrix(1695.54,1695.54,1695.54,-1695.54,5301.54,-49.61)"
       gradientUnits="userSpaceOnUse"
       y2="0"
       x2="1"
       y1="0"
       x1="0"><stop
         id="stop174"
         offset="0"
         style="stop-opacity:1;stop-color:#07b9cb" /><stop
         id="stop176"
         offset="0.4854273"
         style="stop-opacity:1;stop-color:#07b9cb" /><stop
         id="stop178"
         offset="1"
         style="stop-opacity:1;stop-color:#c2d63e" /></linearGradient><clipPath
       id="clipPath190"
       clipPathUnits="userSpaceOnUse"><path
         id="path188"
         d="m 6855.29,1331.35 c 19.54,-6.23 40.63,4.66 46.87,24.2 l 16.63,52.15 c 6.23,19.55 -4.66,40.63 -24.2,46.87 -19.54,6.23 -40.63,-4.66 -46.86,-24.21 l -16.64,-52.14 c -6.23,-19.55 4.66,-40.63 24.2,-46.87 z" /></clipPath><linearGradient
       id="linearGradient198"
       spreadMethod="pad"
       gradientTransform="matrix(1701.64,1701.64,1701.64,-1701.64,5360.39,-121.59)"
       gradientUnits="userSpaceOnUse"
       y2="0"
       x2="1"
       y1="0"
       x1="0"><stop
         id="stop192"
         offset="0"
         style="stop-opacity:1;stop-color:#07b9cb" /><stop
         id="stop194"
         offset="0.4854273"
         style="stop-opacity:1;stop-color:#07b9cb" /><stop
         id="stop196"
         offset="1"
         style="stop-opacity:1;stop-color:#c2d63e" /></linearGradient><clipPath
       id="clipPath208"
       clipPathUnits="userSpaceOnUse"><path
         id="path206"
         d="m 6806.6,1178.69 c 19.55,-6.23 40.64,4.65 46.87,24.2 l 16.63,52.14 c 6.23,19.55 -4.66,40.64 -24.2,46.87 -19.54,6.23 -40.63,-4.66 -46.86,-24.2 l -16.63,-52.15 c -6.24,-19.55 4.65,-40.63 24.19,-46.86 z" /></clipPath><linearGradient
       id="linearGradient216"
       spreadMethod="pad"
       gradientTransform="matrix(1701.64,1701.64,1701.64,-1701.64,5411.83,-174.13)"
       gradientUnits="userSpaceOnUse"
       y2="0"
       x2="1"
       y1="0"
       x1="0"><stop
         id="stop210"
         offset="0"
         style="stop-opacity:1;stop-color:#07b9cb" /><stop
         id="stop212"
         offset="0.4854273"
         style="stop-opacity:1;stop-color:#07b9cb" /><stop
         id="stop214"
         offset="1"
         style="stop-opacity:1;stop-color:#c2d63e" /></linearGradient><clipPath
       id="clipPath226"
       clipPathUnits="userSpaceOnUse"><path
         id="path224"
         d="m 6127.33,95.3906 c 0,-9 -7.37,-16.3711 -16.37,-16.3711 h -141.15 c -9.01,0 -16.37,7.3711 -16.37,16.3711 v 10.7574 c 0,9 7.36,16.372 16.37,16.372 h 141.15 c 9,0 16.37,-7.372 16.37,-16.372 z m 627.61,98.0704 H 5182.92 v -92.68 c 0,-25.7693 13.99,-47.6404 41.98,-65.6599 28,-18.0195 61.63,-27.04297 100.93,-27.04297 h 1429.11 c 39.29,0 72.93,9.02347 100.92,27.04297 27.99,18.0195 41.99,39.8906 41.99,65.6599 v 92.68 z" /></clipPath><linearGradient
       id="linearGradient234"
       spreadMethod="pad"
       gradientTransform="matrix(1671.43,1671.43,1671.43,-1671.43,5581.52,-325.67)"
       gradientUnits="userSpaceOnUse"
       y2="0"
       x2="1"
       y1="0"
       x1="0"><stop
         id="stop228"
         offset="0"
         style="stop-opacity:1;stop-color:#07b9cb" /><stop
         id="stop230"
         offset="0.4854273"
         style="stop-opacity:1;stop-color:#07b9cb" /><stop
         id="stop232"
         offset="1"
         style="stop-opacity:1;stop-color:#c2d63e" /></linearGradient></defs><g
     transform="matrix(1.3333333,0,0,-1.3333333,0,225.48)"
     id="g10"><g
       transform="scale(0.1)"
       id="g12"><path
         id="path14"
         style="fill:#2a2f3d;fill-opacity:1;fill-rule:nonzero;stroke:none"
         d="M 465.859,315.898 V 199.961 H 0 V 937.035 H 134.02 V 315.898 h 331.839" /><path
         id="path16"
         style="fill:#2a2f3d;fill-opacity:1;fill-rule:nonzero;stroke:none"
         d="M 676.773,199.961 H 548.07 v 556.266 h 128.703 z m 13.825,718.992 c 0,-24.105 -7.809,-43.25 -23.403,-57.43 -15.597,-14.195 -34.035,-21.269 -55.308,-21.269 -21.989,0 -40.778,7.074 -56.367,21.269 -15.602,14.18 -23.407,33.325 -23.407,57.43 0,24.817 7.805,44.313 23.407,58.496 15.589,14.18 34.378,21.278 56.367,21.278 21.273,0 39.711,-7.098 55.308,-21.278 15.594,-14.183 23.403,-33.679 23.403,-58.496" /><path
         id="path18"
         style="fill:#2a2f3d;fill-opacity:1;fill-rule:nonzero;stroke:none"
         d="M 968.047,199.961 C 932.449,272.969 895.953,356.84 858.586,451.512 821.191,546.16 787.203,647.73 756.582,756.227 h 137.266 c 7.816,-31.219 16.898,-64.715 27.222,-100.516 10.313,-35.813 21.356,-71.633 33.102,-107.422 11.746,-35.82 23.851,-70.57 36.312,-104.23 12.466,-33.68 24.026,-64.008 34.716,-90.938 10.66,26.93 22.07,57.258 34.17,90.938 12.1,33.66 24.02,68.41 35.78,104.23 11.73,35.789 22.95,71.609 33.63,107.422 10.67,35.801 19.93,69.297 27.78,100.516 h 132.98 C 1258.93,647.73 1224.93,546.16 1187.55,451.512 1150.16,356.84 1113.68,272.969 1078.08,199.961 H 968.047" /><path
         id="path20"
         style="fill:#2a2f3d;fill-opacity:1;fill-rule:nonzero;stroke:none"
         d="m 1694.41,532.871 c 0,17.719 -2.5,34.559 -7.45,50.52 -4.97,15.949 -12.23,29.781 -21.8,41.48 -9.58,11.699 -21.27,20.91 -35.11,27.649 -13.82,6.73 -30.31,10.109 -49.45,10.109 -19.86,0 -37.23,-3.719 -52.12,-11.168 -14.89,-7.449 -27.48,-17.199 -37.76,-29.25 -10.28,-12.063 -18.26,-25.891 -23.93,-41.481 -5.68,-15.601 -9.57,-31.558 -11.69,-47.859 z m -373.34,-57.43 c 0,48.918 7.26,91.821 21.81,128.688 14.53,36.859 33.86,67.531 57.96,92.008 24.1,24.457 51.76,42.886 82.96,55.297 31.21,12.402 63.11,18.613 95.73,18.613 76.58,0 136.31,-23.766 179.22,-71.254 42.89,-47.523 64.35,-118.422 64.35,-212.723 0,-7.101 -0.18,-15.082 -0.53,-23.929 -0.36,-8.879 -0.9,-16.86 -1.6,-23.93 h -366.94 c 3.54,-44.672 19.3,-79.242 47.33,-103.699 28,-24.473 68.61,-36.703 121.78,-36.703 31.2,0 59.73,2.82 85.62,8.511 25.88,5.668 46.26,11.7 61.16,18.078 l 17.01,-105.296 c -7.09,-3.563 -16.84,-7.282 -29.24,-11.172 -12.42,-3.91 -26.6,-7.45 -42.55,-10.641 -15.96,-3.18 -33.15,-5.848 -51.58,-7.969 -18.45,-2.129 -37.23,-3.191 -56.37,-3.191 -48.93,0 -91.48,7.281 -127.63,21.801 -36.17,14.519 -65.95,34.742 -89.35,60.629 -23.4,25.871 -40.78,56.371 -52.11,91.472 -11.35,35.098 -17.03,73.559 -17.03,115.41" /><path
         id="path22"
         style="fill:#2a2f3d;fill-opacity:1;fill-rule:nonzero;stroke:none"
         d="m 2077.29,531.809 v -224.43 c 14.89,-1.418 30.84,-2.488 47.87,-3.199 17.01,-0.711 32.6,-1.059 46.79,-1.059 27.66,0 53.35,1.77 77.11,5.328 23.76,3.539 44.31,9.731 61.7,18.61 17.37,8.863 31.19,20.742 41.48,35.632 10.27,14.887 15.42,34.039 15.42,57.438 0,41.832 -15.26,70.883 -45.73,87.211 -30.5,16.301 -72.7,24.469 -126.58,24.469 z m 0,105.293 h 94.66 c 51.06,0 91.12,7.269 120.2,21.808 29.06,14.52 43.6,40.582 43.6,78.168 0,35.449 -15.07,60.633 -45.2,75.516 -30.14,14.894 -69.32,22.344 -117.53,22.344 -20.57,0 -38.83,-0.368 -54.78,-1.071 -15.95,-0.711 -29.61,-1.777 -40.95,-3.187 z m 90.42,-445.661 c -39.01,0 -78.36,1.25 -118.07,3.731 -39.72,2.488 -74.45,7.609 -104.23,15.418 v 715.812 c 15.59,2.825 32.26,5.481 49.99,7.977 17.72,2.48 35.79,4.426 54.24,5.844 18.43,1.418 36.69,2.488 54.78,3.203 18.08,0.695 35.26,1.062 51.58,1.062 44.67,0 86.16,-3.379 124.44,-10.109 38.3,-6.742 71.43,-17.918 99.46,-33.5 28,-15.609 49.8,-36.168 65.4,-61.695 15.59,-25.524 23.4,-57.086 23.4,-94.657 0,-34.754 -8.34,-64.539 -24.99,-89.347 -16.67,-24.821 -39.88,-44.668 -69.67,-59.559 44.67,-14.891 77.65,-36.883 98.92,-65.941 21.27,-29.09 31.91,-65.95 31.91,-110.621 0,-75.879 -27.66,-132.789 -82.97,-170.719 -55.3,-37.942 -140.04,-56.899 -254.19,-56.899" /><path
         id="path24"
         style="fill:#2a2f3d;fill-opacity:1;fill-rule:nonzero;stroke:none"
         d="m 2939.25,640.301 c -10.64,3.527 -25.37,7.258 -44.15,11.16 -18.79,3.891 -40.59,5.848 -65.4,5.848 -14.2,0 -29.25,-1.43 -45.21,-4.258 -15.95,-2.84 -27.12,-5.321 -33.5,-7.442 V 199.961 h -128.7 v 529.672 c 24.81,9.215 55.84,17.894 93.07,26.058 37.22,8.145 78.52,12.239 123.9,12.239 8.52,0 18.44,-0.543 29.79,-1.602 11.34,-1.055 22.69,-2.492 34.03,-4.258 11.34,-1.773 22.34,-3.906 32.98,-6.379 10.63,-2.488 19.14,-4.785 25.52,-6.918 l -22.33,-108.472" /><path
         id="path26"
         style="fill:#2a2f3d;fill-opacity:1;fill-rule:nonzero;stroke:none"
         d="m 3167.18,199.961 h -128.7 v 556.266 h 128.7 z m 13.83,718.992 c 0,-24.105 -7.81,-43.25 -23.4,-57.43 -15.6,-14.195 -34.04,-21.269 -55.31,-21.269 -21.99,0 -40.78,7.074 -56.37,21.269 -15.6,14.18 -23.4,33.325 -23.4,57.43 0,24.817 7.8,44.313 23.4,58.496 15.59,14.18 34.38,21.278 56.37,21.278 21.27,0 39.71,-7.098 55.31,-21.278 15.59,-14.183 23.4,-33.679 23.4,-58.496" /><path
         id="path28"
         style="fill:#2a2f3d;fill-opacity:1;fill-rule:nonzero;stroke:none"
         d="m 3407.53,479.691 c 0,-56.742 13.47,-101.222 40.42,-133.48 26.94,-32.281 64.17,-48.402 111.68,-48.402 20.56,0 38.11,0.882 52.65,2.66 14.52,1.75 26.4,3.711 35.63,5.851 v 319.078 c -11.36,7.793 -26.43,15.063 -45.2,21.801 -18.8,6.731 -38.82,10.11 -60.09,10.11 -46.81,0 -81.02,-15.95 -102.65,-47.86 -21.64,-31.91 -32.44,-75.168 -32.44,-129.758 z m 369.08,-262.722 c -25.53,-7.821 -57.63,-14.891 -96.26,-21.278 -38.66,-6.371 -79.24,-9.562 -121.78,-9.562 -43.98,0 -83.34,6.742 -118.07,20.199 -34.74,13.461 -64.34,32.793 -88.81,57.973 -24.45,25.168 -43.26,55.668 -56.36,91.48 -13.13,35.789 -19.69,76.039 -19.69,120.719 0,43.949 5.49,83.84 16.49,119.648 10.99,35.801 27.13,66.481 48.4,92.012 21.27,25.52 47.15,45.203 77.64,59.028 30.48,13.824 65.58,20.742 105.29,20.742 26.95,0 50.69,-3.2 71.27,-9.575 20.55,-6.378 38.29,-13.484 53.18,-21.277 v 266.962 l 128.7,21.28 V 216.969" /><path
         id="path30"
         style="fill:#2a2f3d;fill-opacity:1;fill-rule:nonzero;stroke:none"
         d="m 4017.73,492.449 c 0,-54.609 11.86,-94.5 35.62,-119.66 23.76,-25.168 54.42,-37.75 92.01,-37.75 20.56,0 39.89,2.832 57.97,8.5 18.07,5.68 32.78,12.41 44.14,20.223 v 288.226 c -9.23,2.133 -20.58,4.071 -34.04,5.852 -13.47,1.762 -30.5,2.66 -51.06,2.66 -46.79,0 -82.6,-15.43 -107.41,-46.262 -24.84,-30.847 -37.23,-71.449 -37.23,-121.789 z M 4376.17,256.32 c 0,-88.629 -22.52,-153.5 -67.55,-194.6403 -45.04,-41.1094 -113.98,-61.6914188 -206.87,-61.6914188 -34.03,0 -67.18,2.8437488 -99.45,8.5234388 -32.27,5.66798 -61.52,13.11718 -87.74,22.31638 l 23.4,109.5629 c 21.97,-9.211 46.96,-16.661 74.98,-22.34 28,-5.66 58.31,-8.5 90.94,-8.5 51.75,0 88.62,10.629 110.62,31.898 21.96,21.281 32.97,52.832 32.97,94.672 v 21.27 c -12.77,-6.379 -29.62,-12.762 -50.53,-19.153 -20.91,-6.379 -44.85,-9.566 -71.79,-9.566 -35.46,0 -67.9,5.668 -97.31,17.019 -29.44,11.329 -54.62,28 -75.53,49.989 -20.92,21.968 -37.22,49.468 -48.92,82.429 -11.71,32.973 -17.56,71.082 -17.56,114.34 0,40.422 6.21,77.641 18.62,111.68 12.4,34.043 30.49,63.101 54.25,87.219 23.75,24.097 52.64,42.886 86.68,56.371 34.03,13.457 72.68,20.211 115.93,20.211 41.83,0 81.53,-3.2 119.13,-9.575 37.57,-6.378 69.48,-13.132 95.73,-20.214 V 256.32" /><path
         id="path32"
         style="fill:#2a2f3d;fill-opacity:1;fill-rule:nonzero;stroke:none"
         d="m 4860,532.871 c 0,17.719 -2.5,34.559 -7.45,50.52 -4.98,15.949 -12.24,29.781 -21.8,41.48 -9.58,11.699 -21.28,20.91 -35.11,27.649 -13.83,6.73 -30.31,10.109 -49.45,10.109 -19.86,0 -37.23,-3.719 -52.12,-11.168 -14.89,-7.449 -27.49,-17.199 -37.76,-29.25 -10.28,-12.063 -18.26,-25.891 -23.93,-41.481 -5.69,-15.601 -9.58,-31.558 -11.7,-47.859 z m -373.34,-57.43 c 0,48.918 7.26,91.821 21.8,128.688 14.53,36.859 33.86,67.531 57.97,92.008 24.1,24.457 51.76,42.886 82.96,55.297 31.21,12.402 63.11,18.613 95.73,18.613 76.58,0 136.31,-23.766 179.22,-71.254 42.89,-47.523 64.35,-118.422 64.35,-212.723 0,-7.101 -0.19,-15.082 -0.53,-23.929 -0.37,-8.879 -0.91,-16.86 -1.6,-23.93 h -366.95 c 3.54,-44.672 19.31,-79.242 47.33,-103.699 28.01,-24.473 68.61,-36.703 121.79,-36.703 31.19,0 59.72,2.82 85.62,8.511 25.87,5.668 46.26,11.7 61.16,18.078 l 17.01,-105.296 c -7.1,-3.563 -16.85,-7.282 -29.25,-11.172 -12.41,-3.91 -26.59,-7.45 -42.54,-10.641 -15.96,-3.18 -33.16,-5.848 -51.58,-7.969 -18.45,-2.129 -37.23,-3.191 -56.37,-3.191 -48.94,0 -91.48,7.281 -127.64,21.801 -36.17,14.519 -65.94,34.742 -89.34,60.629 -23.41,25.871 -40.78,56.371 -52.11,91.472 -11.36,35.098 -17.03,73.559 -17.03,115.41" /><g
         id="g34"><g
           clip-path="url(#clipPath40)"
           id="g36"><path
             id="path50"
             style="fill:url(#linearGradient48);fill-opacity:1;fill-rule:nonzero;stroke:none"
             d="m 6426.57,668.949 -47.72,-26.808 c -17.88,-10.051 -40.74,-3.641 -50.78,14.25 -10.05,17.879 -3.64,40.726 14.24,50.777 l 47.72,26.812 c 17.88,10.047 40.74,3.637 50.78,-14.246 10.05,-17.879 3.64,-40.734 -14.24,-50.785 z m -139.7,-78.488 -47.72,-26.82 c -17.88,-10.039 -40.73,-3.629 -50.78,14.25 -10.05,17.879 -3.64,40.73 14.24,50.781 l 47.72,26.808 c 17.89,10.051 40.74,3.641 50.78,-14.242 10.05,-17.879 3.64,-40.726 -14.24,-50.777 z m -139.7,-78.5 -47.72,-26.813 c -17.88,-10.046 -40.74,-3.636 -50.78,14.243 -10.05,17.879 -3.64,40.738 14.24,50.789 l 47.72,26.808 c 17.88,10.051 40.74,3.641 50.78,-14.25 10.05,-17.879 3.64,-40.726 -14.24,-50.777 z M 5981.2,339.84 c -51.06,-28.692 -115.71,-10.551 -144.4,40.512 -28.7,51.058 -10.56,115.707 40.5,144.41 51.07,28.687 115.72,10.547 144.41,-40.512 28.69,-51.059 10.56,-115.719 -40.51,-144.41 z m 486.65,611.785 c 34.88,110.545 135.54,182.045 245.24,185.075 -5.76,18.28 -15.02,35.16 -27.91,50.57 -39.11,-4.4 -76.83,-15.97 -111.27,-33.89 -4.41,-2.29 -8.77,-4.7 -13.07,-7.19 -1.4,-0.82 -2.77,-1.71 -4.16,-2.54 -2.87,-1.73 -5.74,-3.45 -8.56,-5.27 -1.65,-1.06 -3.25,-2.2 -4.88,-3.3 -2.5,-1.67 -5,-3.34 -7.46,-5.09 -1.73,-1.24 -3.43,-2.55 -5.14,-3.82 -2.28,-1.7 -4.57,-3.38 -6.8,-5.13 -1.77,-1.4 -3.48,-2.85 -5.22,-4.28 -2.11,-1.74 -4.23,-3.46 -6.3,-5.25 -1.75,-1.52 -3.46,-3.09 -5.18,-4.65 -1.98,-1.8 -3.98,-3.59 -5.92,-5.44 -1.71,-1.63 -3.38,-3.31 -5.06,-4.99 -1.87,-1.86 -3.74,-3.72 -5.56,-5.63 -1.67,-1.74 -3.3,-3.53 -4.93,-5.33 -1.76,-1.92 -3.51,-3.85 -5.22,-5.82 -1.6,-1.85 -3.17,-3.73 -4.73,-5.62 -1.66,-2 -3.3,-4.01 -4.91,-6.06 -1.53,-1.95 -3.03,-3.91 -4.51,-5.9 -1.56,-2.07 -3.09,-4.16 -4.6,-6.28 -1.45,-2.04 -2.87,-4.09 -4.27,-6.17 -1.46,-2.15 -2.89,-4.32 -4.29,-6.51 -1.36,-2.13 -2.7,-4.27 -4.02,-6.43 -1.35,-2.22 -2.67,-4.47 -3.96,-6.73 -1.27,-2.21 -2.52,-4.43 -3.75,-6.68 -1.24,-2.3 -2.44,-4.62 -3.64,-6.96 -1.16,-2.29 -2.32,-4.58 -3.44,-6.91 -1.14,-2.37 -2.23,-4.78 -3.32,-7.19 -1.06,-2.366 -2.12,-4.726 -3.13,-7.128 -1.04,-2.457 -2.01,-4.949 -2.99,-7.445 -0.95,-2.422 -1.9,-4.84 -2.8,-7.301 -1.59,-4.359 -3.13,-8.75 -4.54,-13.219 -18.4,-58.289 -19.12,-117.949 -5.18,-173.164 l -52.74,-30.012 c -20.86,69.747 -21.76,146.254 1.8,220.887 3.13,9.938 6.67,19.622 10.54,29.102 -0.01,0.01 -0.02,0.02 -0.03,0.02 0.31,0.76 0.67,1.5 0.98,2.25 1.98,4.75 4.04,9.43 6.19,14.06 0.64,1.4 1.29,2.81 1.95,4.2 2.6,5.42 5.28,10.77 8.11,16.02 0.34,0.62 0.7,1.23 1.03,1.85 2.58,4.71 5.25,9.33 8.01,13.9 0.8,1.32 1.6,2.65 2.42,3.97 3.06,4.92 6.19,9.78 9.44,14.53 l -195.94,159.3 H 5515.1 c -42.48,0 -78.86,-15.12 -109.12,-45.38 -30.26,-30.26 -45.38,-66.62 -45.38,-109.11 V 409.762 c 0,-42.492 15.12,-78.852 45.38,-109.102 30.26,-30.262 66.64,-45.39 109.12,-45.39 h 1050.58 c 42.49,0 78.85,15.109 109.09,45.39 30.27,30.27 45.4,66.621 45.4,109.102 v 85.09 c -37.39,0.046 -75.41,5.679 -112.95,17.527 -70.95,22.391 -130.61,63.851 -175.1,116.949 L 6484.25,659 c 36.71,-40.879 84.49,-72.77 140.68,-90.5 31.66,-9.988 63.71,-14.762 95.24,-14.801 v 53.313 c -26.29,0.027 -53.05,4 -79.46,12.328 -139.49,44.019 -216.88,192.793 -172.86,332.285" /></g></g><g
         id="g52"><g
           clip-path="url(#clipPath58)"
           id="g54"><path
             id="path68"
             style="fill:url(#linearGradient66);fill-opacity:1;fill-rule:nonzero;stroke:none"
             d="m 6546.75,1205.56 c 23.29,12.12 47.84,21.79 73.24,28.85 -16.85,6.31 -34.91,9.62 -54.31,9.62 H 6309.2 l 138.66,-112.73 c 28.8,30.17 62.29,55.22 98.89,74.26" /></g></g><g
         id="g70"><g
           clip-path="url(#clipPath76)"
           id="g72"><path
             id="path86"
             style="fill:url(#linearGradient84);fill-opacity:1;fill-rule:nonzero;stroke:none"
             d="m 6544.57,927.41 c -30.6,-96.961 23.39,-200.742 120.36,-231.34 18.02,-5.691 36.6,-8.582 55.24,-8.601 v 368.911 c -80.71,-0.07 -151.27,-51.87 -175.6,-128.97" /></g></g><g
         id="g88"><g
           clip-path="url(#clipPath94)"
           id="g90"><path
             id="path104"
             style="fill:url(#linearGradient102);fill-opacity:1;fill-rule:nonzero;stroke:none"
             d="m 6893.93,1205.85 -18.03,-57.12 c 47.58,-26.59 86.47,-64.48 114.25,-109.06 l 58.02,17.52 c -35.21,62.13 -88.05,114.45 -154.24,148.66" /></g></g><g
         id="g106"><g
           clip-path="url(#clipPath112)"
           id="g108"><path
             id="path122"
             style="fill:url(#linearGradient120);fill-opacity:1;fill-rule:nonzero;stroke:none"
             d="m 7443.62,1060.16 c -8.57,-27.15 -33.66,-44.52 -60.7,-44.52 -6.34,0 -12.79,0.96 -19.17,2.97 -33.53,10.58 -52.14,46.34 -41.55,79.87 8.57,27.15 33.65,44.52 60.69,44.52 6.35,0 12.81,-0.95 19.18,-2.97 33.52,-10.58 52.13,-46.34 41.55,-79.87 z m -26.02,130.42 c -11.8,3.72 -23.74,5.49 -35.49,5.49 -50.05,0 -96.47,-32.12 -112.34,-82.39 -4.23,-13.44 -5.94,-27.05 -5.39,-40.36 l -303,-91.504 c -30.06,65.834 -86.8,119.184 -161.25,142.674 -26.52,8.37 -53.38,12.35 -79.78,12.35 -2.43,0 -4.84,-0.08 -7.26,-0.14 4.66,-14.79 7.08,-30.49 7.08,-47.16 v -33.16 c 0.06,0 0.11,0.01 0.17,0.01 18.76,0 37.45,-2.91 55.57,-8.62 49.68,-15.68 90.61,-51.899 112.27,-99.364 l 8.75,-19.168 3.63,-17.832 0.03,-0.215 0.3,-1.464 0.04,-0.227 0.05,-0.227 c 1.49,-7.175 2.57,-14.414 3.19,-21.617 l 0.1,-1.519 0.13,-1.899 c 0.14,-2.172 0.27,-4.351 0.34,-6.699 0.05,-1.629 0.09,-3.254 0.1,-4.754 0.01,-1.625 -0.04,-3.25 -0.08,-5.101 -0.16,-7.586 -0.82,-15.317 -1.93,-22.84 l -0.23,-1.606 c -0.39,-2.511 -0.88,-5.152 -1.49,-8.199 l -0.11,-0.469 -0.04,-0.211 c -1.21,-5.82 -2.44,-10.894 -3.73,-15.336 l -3.1,-8.746 c -26,-73.464 -95.79,-122.828 -173.67,-122.828 -0.1,0 -0.19,0.02 -0.29,0.02 v -80.457 c 0.1,0 0.19,-0.012 0.29,-0.012 109.54,0 211.33,68.52 249.52,176.438 l 0.05,-0.137 c 1,2.84 2.1,5.621 3.02,8.515 2.74,8.711 4.88,17.457 6.69,26.211 0.05,0.25 0.11,0.504 0.16,0.75 0.84,4.118 1.6,8.231 2.24,12.344 0.09,0.594 0.16,1.18 0.25,1.77 1.65,11.07 2.58,22.125 2.81,33.113 0.05,2.398 0.11,4.793 0.1,7.176 -0.02,2.343 -0.07,4.672 -0.15,7.004 -0.1,3.175 -0.27,6.328 -0.48,9.484 -0.12,1.684 -0.2,3.367 -0.35,5.043 -0.91,10.453 -2.46,20.793 -4.58,30.977 -0.02,0.113 -0.03,0.222 -0.06,0.332 l 301.71,91.11 c 14.3,-23.607 36.9,-42.321 65.29,-51.282 11.8,-3.719 23.75,-5.493 35.5,-5.493 50.05,0 96.46,32.137 112.33,82.395 19.58,62.06 -14.84,128.25 -76.91,147.83" /></g></g><g
         id="g124"><g
           clip-path="url(#clipPath130)"
           id="g126"><path
             id="path140"
             style="fill:url(#linearGradient138);fill-opacity:1;fill-rule:nonzero;stroke:none"
             d="m 5915.8,1415.76 c -57.96,0 -105.12,47.15 -105.12,105.12 0,57.96 47.16,105.12 105.12,105.12 57.96,0 105.12,-47.16 105.12,-105.12 0,-57.97 -47.16,-105.12 -105.12,-105.12 z m 146.49,29 c 11.86,22.78 18.61,48.66 18.61,76.12 0,91.18 -73.92,165.1 -165.1,165.1 -91.18,0 -165.1,-73.92 -165.1,-165.1 0,-91.18 73.92,-165.1 165.1,-165.1 42.07,0 80.45,15.77 109.61,41.68 l 188.72,-153.43 h 95.07 l -246.91,200.73" /></g></g><g
         id="g142"><g
           clip-path="url(#clipPath148)"
           id="g144"><path
             id="path158"
             style="fill:url(#linearGradient156);fill-opacity:1;fill-rule:nonzero;stroke:none"
             d="m 7059.56,421.84 c 45.44,0 82.42,-36.981 82.42,-82.418 0,-45.453 -36.98,-82.41 -82.42,-82.41 -45.45,0 -82.42,36.957 -82.42,82.41 0,45.437 36.97,82.418 82.42,82.418 z m -165.21,115.59 2.75,1.449 62.79,-97.859 c -26.34,-25.84 -42.72,-61.79 -42.72,-101.598 0,-78.641 63.75,-142.391 142.39,-142.391 78.64,0 142.39,63.75 142.39,142.391 0,78.637 -63.75,142.387 -142.39,142.387 -17.22,0 -33.65,-3.207 -48.93,-8.809 l -62.95,98.121 c 20.26,15.289 39,32.707 55.94,51.988 0.01,-0.019 0.02,-0.039 0.03,-0.058 0.66,0.75 1.27,1.539 1.92,2.301 2.81,3.25 5.56,6.546 8.27,9.898 0.98,1.23 1.98,2.441 2.96,3.68 3.56,4.539 7.06,9.16 10.42,13.879 0.29,0.41 0.57,0.832 0.85,1.242 3.06,4.32 6.01,8.73 8.89,13.199 0.93,1.441 1.84,2.898 2.75,4.359 2.31,3.68 4.55,7.422 6.73,11.2 0.84,1.441 1.68,2.871 2.5,4.332 2.87,5.121 5.65,10.3 8.3,15.589 0.13,0.266 0.25,0.551 0.39,0.821 2.49,5.008 4.85,10.109 7.13,15.269 0.72,1.633 1.42,3.285 2.11,4.93 1.72,4.035 3.37,8.117 4.95,12.238 0.65,1.676 1.31,3.34 1.93,5.032 2.08,5.648 4.08,11.347 5.91,17.152 16.17,51.223 20.83,103.332 15.41,153.535 l -57.52,-17.379 c 2.8,-38.898 -1.54,-78.976 -14,-118.449 -1.53,-4.863 -3.19,-9.652 -4.94,-14.391 -0.55,-1.504 -1.16,-2.976 -1.73,-4.468 -1.25,-3.227 -2.52,-6.434 -3.85,-9.598 -0.72,-1.699 -1.47,-3.375 -2.21,-5.055 -1.31,-2.949 -2.65,-5.875 -4.04,-8.769 -0.8,-1.653 -1.6,-3.297 -2.42,-4.93 -1.49,-2.973 -3.03,-5.898 -4.61,-8.809 -0.78,-1.441 -1.54,-2.898 -2.34,-4.328 -2.01,-3.562 -4.09,-7.074 -6.21,-10.543 -0.43,-0.691 -0.83,-1.406 -1.25,-2.093 -2.59,-4.137 -5.27,-8.196 -8.03,-12.184 -0.78,-1.141 -1.62,-2.242 -2.42,-3.371 -29.49,-41.5 -68.19,-74.781 -112.29,-97.719 -44.85,-23.332 -95.23,-36 -147.04,-35.922 v -58.847 c 61.37,-0.071 121.05,14.949 174.18,42.578" /></g></g><g
         id="g160"><g
           clip-path="url(#clipPath166)"
           id="g162"><g
             clip-path="url(#clipPath172)"
             id="g168"><path
               id="path182"
               style="fill:url(#linearGradient180);fill-opacity:1;fill-rule:nonzero;stroke:none"
               d="m 6935,1478 v 1 h -13 v 1 h -6 v 1 h -5 v 1 h -4 v 1 h -3 v 1 h -4 v 1 h -2 v 1 h -3 v 1 h -2 v 1 h -2 v 1 h -2 v 1 h -2 v 1 h -2 v 1 h -2 v 1 h -2 v 1 h -1 v 1 h -2 v 1 h -1 v 1 h -2 v 1 h -1 v 1 h -2 v 1 h -1 v 1 h -1 v 1 h -1 v 1 h -2 v 1 h -1 v 1 h -1 v 1 h -1 v 1 h -1 v 1 h -1 v 1 h -1 v 1 h -1 v 1 h -1 v 1 h -1 v 1 h -1 v 1 h -1 v 1 h -1 v 1 h -1 v 2 h -1 v 1 h -1 v 1 h -1 v 2 h -1 v 1 h -1 v 1 h -1 v 2 h -1 v 1 h -1 v 2 h -1 v 2 h -1 v 1 h -1 v 2 h -1 v 2 h -1 v 2 h -1 v 2 h -1 v 2 h -1 v 3 h -1 v 2 h -1 v 3 h -1 v 3 h -1 v 3 h -1 v 5 h -1 v 4 h -1 v 7 h -1 v 26 h 1 v 7 h 1 v 5 h 1 v 4 h 1 v 3 h 1 v 3 h 1 v 3 h 1 v 2 h 1 v 3 h 1 v 2 h 1 v 2 h 1 v 2 h 1 v 2 h 1 v 2 h 1 v 2 h 1 v 1 h 1 v 2 h 1 v 1 h 1 v 2 h 1 v 1 h 1 v 2 h 1 v 1 h 1 v 1 h 1 v 1 h 1 v 2 h 1 v 1 h 1 v 1 h 1 v 1 h 1 v 1 h 1 v 1 h 1 v 1 h 1 v 1 h 1 v 1 h 1 v 1 h 1 v 1 h 1 v 1 h 1 v 1 h 1 v 1 h 1 v 1 h 2 v 1 h 1 v 1 h 1 v 1 h 2 v 1 h 1 v 1 h 2 v 1 h 1 v 1 h 2 v 1 h 1 v 1 h 2 v 1 h 2 v 1 h 2 v 1 h 2 v 1 h 2 v 1 h 2 v 1 h 2 v 1 h 3 v 1 h 3 v 1 h 2 v 1 h 4 v 1 h 4 v 1 h 4 v 1 h 6 v 1 h 30 v -1 h 7 v -1 h 4 v -1 h 4 v -1 h 3 v -1 h 3 v -1 h 3 v -1 h 2 v -1 h 3 v -1 h 2 v -1 h 2 v -1 h 2 v -1 h 2 v -1 h 2 v -1 h 1 v -1 h 2 v -1 h 1 v -1 h 2 v -1 h 1 v -1 h 2 v -1 h 1 v -1 h 1 v -1 h 2 v -1 h 1 v -1 h 1 v -1 h 1 v -1 h 1 v -1 h 1 v -1 h 2 v -1 h 1 v -1 h 1 v -1 h 1 v -1 h 1 v -1 h 1 v -2 h 1 v -1 h 1 v -1 h 1 v -1 h 1 v -1 h 1 v -1 h 1 v -2 h 1 v -1 h 1 v -2 h 1 v -1 h 1 v -1 h 1 v -2 h 1 v -2 h 1 v -2 h 1 v -1 h 1 v -2 h 1 v -2 h 1 v -2 h 1 v -2 h 1 v -3 h 1 v -2 h 1 v -3 h 1 v -3 h 1 v -3 h 1 v -4 h 1 v -4 h 1 v -6 h 1 v -10 h 1 v -12 h -1 v -10 h -1 v -6 h -1 v -4 h -1 v -4 h -1 v -3 h -1 v -3 h -1 v -3 h -1 v -2 h -1 v -3 h -1 v -2 h -1 v -2 h -1 v -2 h -1 v -2 h -1 v -1 h -1 v -2 h -1 v -2 h -1 v -1 h -1 v -2 h -1 v -1 h -1 v -2 h -1 v -1 h -1 v -1 h -1 v -2 h -1 v -1 h -1 v -1 h -1 v -1 h -1 v -1 h -1 v -1 h -1 v -1 h -1 v -1 h -1 v -2 h -1 v -1 h -1 v -1 h -2 v -1 h -1 v -1 h -1 v -1 h -1 v -1 h -1 v -1 h -1 v -1 h -2 v -1 h -1 v -1 h -2 v -1 h -1 v -1 h -1 v -1 h -2 v -1 h -1 v -1 h -2 v -1 h -2 v -1 h -2 v -1 h -1 v -1 h -2 v -1 h -3 v -1 h -2 v -1 h -2 v -1 h -3 v -1 h -2 v -1 h -3 v -1 h -4 v -1 h -4 v -1 h -4 v -1 h -7 v -1 h -13 v -1" /></g></g></g><g
         id="g184"><g
           clip-path="url(#clipPath190)"
           id="g186"><path
             id="path200"
             style="fill:url(#linearGradient198);fill-opacity:1;fill-rule:nonzero;stroke:none"
             d="m 6855.29,1331.35 c 19.54,-6.23 40.63,4.66 46.87,24.2 l 16.63,52.15 c 6.23,19.55 -4.66,40.63 -24.2,46.87 -19.54,6.23 -40.63,-4.66 -46.86,-24.21 l -16.64,-52.14 c -6.23,-19.55 4.66,-40.63 24.2,-46.87" /></g></g><g
         id="g202"><g
           clip-path="url(#clipPath208)"
           id="g204"><path
             id="path218"
             style="fill:url(#linearGradient216);fill-opacity:1;fill-rule:nonzero;stroke:none"
             d="m 6806.6,1178.69 c 19.55,-6.23 40.64,4.65 46.87,24.2 l 16.63,52.14 c 6.23,19.55 -4.66,40.64 -24.2,46.87 -19.54,6.23 -40.63,-4.66 -46.86,-24.2 l -16.63,-52.15 c -6.24,-19.55 4.65,-40.63 24.19,-46.86" /></g></g><g
         id="g220"><g
           clip-path="url(#clipPath226)"
           id="g222"><path
             id="path236"
             style="fill:url(#linearGradient234);fill-opacity:1;fill-rule:nonzero;stroke:none"
             d="m 6127.33,95.3906 c 0,-9 -7.37,-16.3711 -16.37,-16.3711 h -141.15 c -9.01,0 -16.37,7.3711 -16.37,16.3711 v 10.7574 c 0,9 7.36,16.372 16.37,16.372 h 141.15 c 9,0 16.37,-7.372 16.37,-16.372 z m 627.61,98.0704 H 5182.92 v -92.68 c 0,-25.7693 13.99,-47.6404 41.98,-65.6599 28,-18.0195 61.63,-27.04297 100.93,-27.04297 h 1429.11 c 39.29,0 72.93,9.02347 100.92,27.04297 27.99,18.0195 41.99,39.8906 41.99,65.6599 v 92.68 h -142.91" /></g></g></g></g></svg>