<svg width="24" height="24" viewBox="0 0 24 24" fill="none" xmlns="http://www.w3.org/2000/svg">
<path fill-rule="evenodd" clip-rule="evenodd" d="M14.5063 3.98716C14.1325 3.80031 13.714 3.72127 13.2978 3.75889C12.8922 3.79556 12.5043 3.94162 12.1754 4.18124L5.7816 8.25003H3C2.40326 8.25003 1.83097 8.48708 1.40901 8.90904C0.987053 9.33099 0.75 9.90329 0.75 10.5V13.5C0.75 14.0968 0.987053 14.6691 1.40901 15.091C1.83097 15.513 2.40326 15.75 3 15.75H5.7816L12.1755 19.8189C12.5044 20.0584 12.8923 20.2044 13.2979 20.2409C13.7141 20.2785 14.1325 20.1994 14.5062 20.0125C14.88 19.8256 15.1943 19.5384 15.414 19.1829C15.6336 18.8275 15.75 18.4179 15.75 18V6.00025V6.00003C15.7501 5.58219 15.6338 5.17258 15.4142 4.8171C15.1946 4.46155 14.8803 4.1742 14.5065 3.98725L14.171 4.65803L14.5063 3.98716ZM14.1381 5.60542C14.0649 5.48696 13.9602 5.39121 13.8357 5.32889L13.8355 5.3288C13.7109 5.26658 13.5715 5.24027 13.4328 5.2528C13.2941 5.26534 13.1616 5.31627 13.0502 5.39989C13.0348 5.41146 13.0189 5.42243 13.0027 5.43277L6.75 9.41174V14.5883L13.0027 18.5673C13.0189 18.5776 13.0346 18.5885 13.05 18.6C13.1614 18.6836 13.2939 18.7345 13.4326 18.747C13.5714 18.7595 13.7108 18.7331 13.8354 18.6708C13.96 18.6086 14.0648 18.5128 14.138 18.3943C14.2112 18.2758 14.25 18.1393 14.25 18V6.00003V5.9998C14.25 5.8605 14.2113 5.72393 14.1381 5.60542ZM5.25 14.25V9.75003H3C2.80109 9.75003 2.61032 9.82904 2.46967 9.9697C2.32902 10.1103 2.25 10.3011 2.25 10.5V13.5C2.25 13.6989 2.32902 13.8897 2.46967 14.0304C2.61032 14.171 2.80109 14.25 3 14.25H5.25ZM22.0952 8.24662C21.8724 7.89742 21.4087 7.79496 21.0595 8.01776C20.7103 8.24055 20.6078 8.70424 20.8306 9.05343C21.4303 9.99336 21.7489 11.0851 21.7489 12.2C21.7489 13.315 21.4303 14.4067 20.8306 15.3466C20.6078 15.6958 20.7103 16.1595 21.0595 16.3823C21.4087 16.6051 21.8724 16.5026 22.0952 16.1534C22.8486 14.9725 23.2489 13.6009 23.2489 12.2C23.2489 10.7992 22.8486 9.42754 22.0952 8.24662ZM18.0891 9.4539C18.4106 9.19272 18.8829 9.24161 19.1441 9.5631C19.7585 10.3194 20.0939 11.2641 20.0939 12.2385C20.0939 13.2129 19.7585 14.1576 19.1441 14.9139C18.8829 15.2354 18.4106 15.2843 18.0891 15.0231C17.7676 14.7619 17.7187 14.2896 17.9799 13.9681C18.3771 13.4792 18.5939 12.8684 18.5939 12.2385C18.5939 11.6086 18.3771 10.9978 17.9799 10.5089C17.7187 10.1874 17.7676 9.71508 18.0891 9.4539Z" fill="white"/>
</svg>
