<?xml version="1.0" encoding="UTF-8"?>
<!DOCTYPE svg PUBLIC "-//W3C//DTD SVG 1.1//EN" "http://www.w3.org/Graphics/SVG/1.1/DTD/svg11.dtd">
<svg xmlns="http://www.w3.org/2000/svg" xml:space="preserve" width="580px" height="580px" shape-rendering="geometricPrecision" text-rendering="geometricPrecision" image-rendering="optimizeQuality" fill-rule="nonzero" clip-rule="nonzero" viewBox="0 0 5800 5800" xmlns:xlink="http://www.w3.org/1999/xlink">
	<title>loudspeaker icon</title>
	<desc>loudspeaker icon from the IconExperience.com I-Collection. Copyright by INCORS GmbH (www.incors.com).</desc>
		<path id="curve28" fill="#000000" d="M900 1900l0 -200 861 0 1318 -1236c37,-35 81,-56 128,-65 97,-16 198,28 252,110 26,40 41,87 41,137l0 4508c0,155 -141,273 -293,247 -47,-9 -91,-30 -128,-65l-1318 -1236 -861 0 0 -200 -100 0c-165,0 -300,-135 -300,-300l0 -1400c0,-165 135,-300 300,-300l100 0zm1000 -57l0 2114 1316 1234c7,7 16,11 25,13 31,5 59,-18 59,-50l0 -4508c0,-11 -3,-21 -7,-28 -11,-16 -33,-25 -52,-22 -9,2 -18,6 -25,13l-1316 1234zm-200 2057l0 -2000 -600 0 0 200 -300 0c-55,0 -100,45 -100,100l0 1400c0,55 45,100 100,100l300 0 0 200 600 0z"/>
</svg>