<svg width="24" height="24" viewBox="0 0 24 24" fill="none" xmlns="http://www.w3.org/2000/svg">
<path d="M12 19.5V23.25" stroke="white" stroke-width="1.5" stroke-linecap="round" stroke-linejoin="round"/>
<path d="M12.0036 0.75C10.8092 0.75 9.66369 1.1925 8.81909 1.98014C7.97449 2.76779 7.5 3.83607 7.5 4.94997V12.2999C7.5 13.4138 7.97449 14.4821 8.81909 15.2698C9.66369 16.0574 10.8092 16.4999 12.0036 16.4999C13.1981 16.4999 14.3436 16.0574 15.1882 15.2698C16.0328 14.4821 16.5073 13.4138 16.5073 12.2999V4.94997C16.5073 3.83607 16.0328 2.76779 15.1882 1.98014C14.3436 1.1925 13.1981 0.75 12.0036 0.75V0.75Z" stroke="white" stroke-width="1.5" stroke-linecap="round" stroke-linejoin="round"/>
<path d="M19.5 9.75V12C19.5 13.9891 18.7098 15.8968 17.3033 17.3033C15.8968 18.7098 13.9891 19.5 12 19.5C10.0109 19.5 8.10322 18.7098 6.6967 17.3033C5.29018 15.8968 4.5 13.9891 4.5 12V9.75" stroke="white" stroke-width="1.5" stroke-linecap="round" stroke-linejoin="round"/>
</svg>
