<svg width="24" height="24" viewBox="0 0 24 24" fill="none" xmlns="http://www.w3.org/2000/svg">
<path d="M12 19.5V23.25" stroke="white" stroke-width="1.5" stroke-linecap="round" stroke-linejoin="round"/>
<path d="M11.438 16.465C11.6244 16.4883 11.8121 16.5 12 16.5V16.5C13.1935 16.5 14.3381 16.0259 15.182 15.182C16.0259 14.3381 16.5 13.1935 16.5 12V11.25" stroke="white" stroke-width="1.5" stroke-linecap="round" stroke-linejoin="round"/>
<path d="M15.936 3.067C15.5464 2.3647 14.976 1.77946 14.2838 1.37203C13.5917 0.964602 12.8032 0.749828 12 0.75V0.75C10.8066 0.75 9.66197 1.22411 8.81806 2.06802C7.97414 2.91193 7.50004 4.05653 7.50004 5.25V12" stroke="white" stroke-width="1.5" stroke-linecap="round" stroke-linejoin="round"/>
<path d="M8.872 18.841C9.85709 19.2771 10.9227 19.5016 12 19.5V19.5C13.9453 19.5352 15.8256 18.7996 17.2306 17.4538C18.6357 16.1079 19.4515 14.261 19.5 12.316V9.75" stroke="white" stroke-width="1.5" stroke-linecap="round" stroke-linejoin="round"/>
<path d="M4.50006 9.75V12.316C4.49963 13.25 4.6902 14.1743 5.06006 15.032" stroke="white" stroke-width="1.5" stroke-linecap="round" stroke-linejoin="round"/>
<path d="M21 2.25L3 21" stroke="white" stroke-width="1.5" stroke-linecap="round" stroke-linejoin="round"/>
</svg>
