<svg width="24" height="24" viewBox="0 0 24 24" fill="none" xmlns="http://www.w3.org/2000/svg">
<path d="M19.6693 9.42566H19.6613C14.6031 8.44145 9.40777 8.44145 4.34959 9.42566H4.34153C2.29244 9.87742 0.840332 11.6926 0.840332 13.782V14.6613C0.840332 15.4842 1.50992 16.1457 2.32471 16.1457H6.05179C6.87465 16.1457 7.53617 15.4761 7.53617 14.6532C7.53617 13.8304 8.19768 13.1689 9.02054 13.1689H14.9742C15.797 13.1689 16.4586 13.8385 16.4586 14.6613C16.4586 15.4842 17.1201 16.1457 17.9429 16.1457H21.67C22.4929 16.1457 23.1544 15.4842 23.1544 14.6613V13.782C23.1544 11.6926 21.7023 9.87742 19.6613 9.42566H19.6693Z" stroke="white" stroke-width="1.5" stroke-linecap="round" stroke-linejoin="round"/>
</svg>
