<svg width="24" height="24" viewBox="0 0 24 24" fill="none" xmlns="http://www.w3.org/2000/svg">
<path d="M16.5 6.747V5.247C16.5 4.84918 16.342 4.46764 16.0607 4.18634C15.7794 3.90504 15.3978 3.747 15 3.747C14.6022 3.747 14.2206 3.90504 13.9393 4.18634C13.658 4.46764 13.5 4.84918 13.5 5.247V4.5C13.5 4.10218 13.342 3.72064 13.0607 3.43934C12.7794 3.15804 12.3978 3 12 3C11.6022 3 11.2206 3.15804 10.9393 3.43934C10.658 3.72064 10.5 4.10218 10.5 4.5V5.25C10.5 4.85218 10.342 4.47064 10.0607 4.18934C9.77936 3.90804 9.39782 3.75 9 3.75C8.60218 3.75 8.22064 3.90804 7.93934 4.18934C7.65804 4.47064 7.5 4.85218 7.5 5.25V10.5C6.70435 10.5 5.94129 10.8161 5.37868 11.3787C4.81607 11.9413 4.5 12.7044 4.5 13.5C4.49977 14.9634 4.95711 16.3903 5.808 17.581L6.908 19.116C7.324 19.6983 7.87287 20.1729 8.50906 20.5006C9.14524 20.8282 9.8504 20.9994 10.566 21H14.379C15.0518 21 15.7179 20.8674 16.3394 20.6099C16.9609 20.3524 17.5256 19.9749 18.0012 19.499C18.4767 19.0232 18.8539 18.4583 19.111 17.8366C19.3682 17.215 19.5004 16.5488 19.5 15.876V6.747C19.5 6.34918 19.342 5.96764 19.0607 5.68634C18.7794 5.40504 18.3978 5.247 18 5.247C17.6022 5.247 17.2206 5.40504 16.9393 5.68634C16.658 5.96764 16.5 6.34918 16.5 6.747V6.747Z" stroke="white" stroke-width="1.5" stroke-linecap="round" stroke-linejoin="round"/>
<path d="M7.5 10.497V12.747" stroke="white" stroke-width="1.5" stroke-linecap="round" stroke-linejoin="round"/>
<path d="M10.5 8.99701V5.24701" stroke="white" stroke-width="1.5" stroke-linecap="round" stroke-linejoin="round"/>
<path d="M13.5 8.99701V5.24701" stroke="white" stroke-width="1.5" stroke-linecap="round" stroke-linejoin="round"/>
<path d="M16.5 8.99701V6.74701" stroke="white" stroke-width="1.5" stroke-linecap="round" stroke-linejoin="round"/>
</svg>
