<?xml version="1.0" encoding="UTF-8"?>
<!DOCTYPE svg PUBLIC "-//W3C//DTD SVG 1.1//EN" "http://www.w3.org/Graphics/SVG/1.1/DTD/svg11.dtd">
<svg xmlns="http://www.w3.org/2000/svg" xml:space="preserve" width="580px" height="580px" shape-rendering="geometricPrecision" text-rendering="geometricPrecision" image-rendering="optimizeQuality" fill-rule="nonzero" clip-rule="nonzero" viewBox="0 0 5800 5800" xmlns:xlink="http://www.w3.org/1999/xlink">
	<title>teacher icon</title>
	<desc>teacher icon from the IconExperience.com I-Collection. Copyright by INCORS GmbH (www.incors.com).</desc>
	<path id="curve0" fill="#333333" d="M4478 3943c18,5 35,16 48,30 75,42 138,61 210,83 56,17 110,35 164,54 275,101 412,204 525,485 50,125 75,260 75,388 0,191 -210,313 -499,388 -374,97 -895,128 -1201,128 -306,0 -827,-31 -1201,-128 -289,-75 -499,-197 -499,-388 0,-128 26,-263 76,-388 112,-281 249,-384 523,-485 55,-20 109,-37 165,-54 73,-22 137,-41 213,-84 12,-13 27,-23 44,-28 25,-24 30,-76 32,-110 2,-50 -3,-107 -7,-160 -2,-26 -4,-52 -5,-75 -113,-131 -154,-302 -197,-465 -156,-102 -216,-306 -175,-483 -15,-65 -28,-130 -38,-197 -59,-416 18,-862 488,-978 18,-4 37,-8 55,-11 147,-126 394,-178 642,-162 462,31 836,273 938,741 38,175 31,375 -23,607 41,177 -18,380 -175,483 -43,164 -82,332 -197,464 -1,31 -3,61 -6,93 -4,49 -18,211 25,252zm-1784 -43c-141,48 -298,107 -411,200l-1183 0 0 200 1007 0c-82,121 -139,258 -173,400l-1634 0c0,-1400 0,-2800 0,-4200l5200 0 0 3810c-42,-63 -90,-123 -144,-176 -18,-17 -37,-33 -56,-47l0 -3387 -4800 0 0 3600 400 0 0 -400 1794 0zm-1667 -2361c59,126 161,288 285,435 102,121 218,232 334,303 47,29 62,90 33,137 -29,47 -90,62 -137,33 -90,-55 -179,-129 -262,-213l-341 232c2,75 8,147 22,216 10,54 -26,106 -80,116 -54,10 -106,-25 -116,-79 -17,-85 -24,-173 -26,-262 -10,-25 -10,-52 -1,-75 4,-234 43,-473 78,-679 9,-54 17,-106 22,-137 9,-54 60,-92 114,-83 34,5 62,27 75,56zm118 545c-57,-68 -109,-139 -155,-209 -18,111 -34,228 -44,345l199 -136zm378 -899c75,-33 147,-59 213,-78 169,-48 390,-62 474,129 6,12 11,26 15,41 29,103 27,184 -3,250 109,23 192,93 234,242 35,124 -5,238 -94,328 -75,77 -193,144 -358,190 -49,14 -101,26 -157,36 -53,9 -103,-25 -115,-76 -88,-315 -176,-629 -265,-943 -14,-49 11,-99 56,-119zm160 150l70 249c110,-32 196,-61 246,-97 42,-31 56,-76 33,-156 -1,-5 -3,-10 -5,-15 -31,-71 -184,-32 -238,-17 -33,10 -68,22 -106,36zm125 442l93 331c17,-4 34,-8 49,-13 129,-36 218,-84 269,-137 36,-37 60,-83 45,-135 -40,-142 -230,-108 -456,-46zm1360 -976c55,3 97,50 95,105 -3,55 -50,97 -105,94 -119,-6 -239,30 -326,122 -76,80 -129,204 -138,382 -2,26 0,53 6,78 -50,67 -89,141 -117,219 -64,-88 -94,-199 -88,-307 12,-231 86,-397 193,-510 131,-137 307,-192 480,-183zm1434 3423c-17,133 -114,267 -225,420 -131,181 -285,394 -310,648 280,-13 622,-46 884,-114 202,-53 349,-118 349,-195 0,-105 -20,-214 -61,-315 -90,-227 -187,-290 -406,-370 -51,-19 -102,-35 -154,-51 -26,-7 -52,-15 -77,-23zm-1067 1068c-26,-254 -180,-467 -311,-648 -110,-153 -208,-288 -225,-421 -26,9 -51,16 -78,24 -52,16 -103,32 -154,51 -219,80 -316,143 -406,370 -40,101 -61,210 -61,315 0,77 147,142 349,195 262,68 605,101 886,114zm755 -1805c93,-91 131,-240 168,-380l16 -64c8,-30 29,-53 56,-65 103,-54 134,-194 103,-299 -10,-34 3,-66 10,-99l-45 0 -35 175c-16,83 -89,145 -175,145l-315 0c-73,0 -139,-45 -166,-114l-81 -206 -52 0 -82 206c-13,35 -36,63 -66,83 -29,20 -63,31 -100,31l-317 0c-85,0 -159,-61 -175,-145l-35 -175 -42 0c8,35 21,68 9,103 -29,105 4,245 108,296 26,14 45,37 52,64 0,0 14,55 15,58 38,144 78,296 169,386 20,20 30,46 30,72 0,0 13,224 13,243 88,144 289,197 447,197 158,0 359,-53 447,-196 0,-43 4,-86 7,-128 4,-43 7,-85 6,-114 0,-29 11,-55 30,-74zm-990 552c-1,3 -3,6 -5,9l182 228 82 -109c-93,-25 -183,-67 -259,-128zm1005 10c-2,-3 -4,-6 -6,-9 -75,61 -165,102 -258,127l82 109 182 -227zm369 -1669c9,-108 4,-205 -16,-294 -82,-380 -384,-559 -755,-584 -210,-14 -413,27 -512,127 -18,17 -40,27 -62,29 -22,3 -43,7 -62,12 -340,84 -378,413 -344,710l90 0c34,-50 89,-80 149,-80l459 0c30,0 58,7 84,21 25,14 47,33 64,59l0 0 62 0c33,-50 88,-80 148,-80l456 0c61,0 115,30 149,80l90 0zm-668 2467c104,-192 266,-362 358,-545l0 -9 -247 308 -169 -226c-26,25 -52,48 -68,64 64,128 103,269 126,408zm-352 -474l-171 228 -254 -317c86,188 261,368 366,561 23,-138 61,-279 125,-406l-66 -66zm756 -1873l-401 0 79 200 283 0 39 -200zm-820 0l-403 0 40 200 284 0 79 -200z"/>
</svg>