<svg width="24" height="24" viewBox="0 0 24 24" fill="none" xmlns="http://www.w3.org/2000/svg">
<path d="M12 11.25C14.8995 11.25 17.25 8.8995 17.25 6C17.25 3.10051 14.8995 0.75 12 0.75C9.10051 0.75 6.75 3.10051 6.75 6C6.75 8.8995 9.10051 11.25 12 11.25Z" stroke="white" stroke-width="1.5" stroke-linecap="round" stroke-linejoin="round"/>
<path d="M7.47607 3.33398C8.28889 4.17734 9.26345 4.84812 10.3415 5.30619C11.4195 5.76427 12.5788 6.00024 13.7501 5.99998C14.9365 6.00045 16.1105 5.75851 17.2001 5.28898" stroke="white" stroke-width="1.5" stroke-linecap="round" stroke-linejoin="round"/>
<path d="M2.25 23.25C2.25 20.6641 3.27723 18.1842 5.10571 16.3557C6.93419 14.5272 9.41414 13.5 12 13.5C14.5859 13.5 17.0658 14.5272 18.8943 16.3557C20.7228 18.1842 21.75 20.6641 21.75 23.25" stroke="white" stroke-width="1.5" stroke-linecap="round" stroke-linejoin="round"/>
<path d="M8.25 14.249V15C8.25 15.9946 8.64509 16.9484 9.34835 17.6517C10.0516 18.3549 11.0054 18.75 12 18.75C12.9946 18.75 13.9484 18.3549 14.6517 17.6517C15.3549 16.9484 15.75 15.9946 15.75 15V14.249" stroke="white" stroke-width="1.5" stroke-linecap="round" stroke-linejoin="round"/>
</svg>
